<?xml version="1.0" standalone="no"?>
<!DOCTYPE svg PUBLIC "-//W3C//DTD SVG 20010904//EN"
 "http://www.w3.org/TR/2001/REC-SVG-20010904/DTD/svg10.dtd">
<svg version="1.0" xmlns="http://www.w3.org/2000/svg"
 width="279.000000pt" height="300.000000pt" viewBox="0 0 279.000000 300.000000"
 preserveAspectRatio="xMidYMid meet">

<g transform="translate(0.000000,300.000000) scale(0.100000,-0.100000)"
fill="#000000" stroke="none">
<path d="M1374 2979 c-67 -74 -254 -173 -393 -208 -155 -38 -399 -24 -579 35
-40 13 -77 22 -82 19 -14 -9 -305 -385 -305 -394 0 -5 27 -29 60 -53 177 -132
255 -277 242 -450 -8 -98 -39 -190 -127 -378 -95 -200 -113 -270 -113 -435 -1
-206 50 -350 166 -467 86 -88 137 -118 438 -269 145 -72 366 -187 491 -255
l227 -124 163 91 c90 50 314 168 498 261 184 94 363 190 396 214 167 119 251
278 262 496 9 184 -13 275 -122 505 -103 220 -111 247 -111 393 0 122 1 127
33 192 40 83 114 165 203 228 l68 47 -156 199 c-85 109 -156 200 -158 202 -2
2 -39 -8 -83 -22 -174 -55 -423 -73 -560 -41 -143 34 -301 114 -403 203 l-36
32 -19 -21z m110 -144 c214 -140 435 -188 696 -151 64 9 148 25 188 36 39 11
74 20 76 20 4 0 115 -140 227 -285 4 -6 -19 -32 -56 -62 -73 -60 -154 -169
-187 -252 -18 -47 -22 -76 -22 -176 0 -145 19 -211 124 -435 79 -170 95 -216
111 -328 28 -201 -30 -390 -158 -513 -82 -79 -134 -110 -463 -274 -140 -70
-336 -172 -436 -226 -100 -55 -184 -99 -187 -99 -4 0 -93 47 -199 105 -106 59
-318 169 -470 245 -153 76 -304 157 -336 179 -174 118 -251 288 -239 530 6
142 18 181 117 396 95 207 120 294 120 424 -1 164 -57 281 -197 411 l-76 69
114 145 c62 81 118 146 124 146 5 0 38 -9 72 -20 101 -31 285 -53 398 -47 174
10 347 68 484 162 42 29 79 53 83 54 4 0 45 -24 92 -54z"/>
<path d="M1360 2788 c-39 -33 -236 -124 -320 -148 -146 -43 -413 -38 -598 10
l-71 18 -81 -105 -82 -104 74 -77 c183 -192 223 -415 125 -685 -18 -50 -21
-67 -11 -63 8 3 368 191 801 417 434 227 861 450 951 497 90 46 162 86 160 88
-2 1 -21 -2 -43 -7 -70 -17 -339 -23 -418 -9 -134 24 -273 79 -395 156 -29 19
-56 34 -60 34 -4 -1 -18 -10 -32 -22z m-98 -168 c16 -29 20 -30 83 -30 74 0
78 -11 10 -30 -25 -7 -45 -15 -45 -17 0 -3 9 -18 21 -34 24 -34 22 -34 -42
-12 -47 17 -51 17 -98 0 -64 -23 -66 -22 -41 13 l22 30 -34 14 c-75 30 -76 31
-5 34 64 3 70 5 85 32 9 17 19 30 22 30 3 0 13 -14 22 -30z m-349 -60 c17 -29
21 -30 85 -30 70 0 73 -9 10 -30 -42 -13 -45 -20 -22 -55 20 -30 10 -31 -48
-6 -42 18 -45 18 -88 0 -66 -26 -75 -24 -50 12 12 16 21 31 19 33 -2 1 -26 11
-54 22 l-50 19 68 3 c64 3 70 5 85 32 9 17 19 30 22 30 3 0 14 -13 23 -30z
m706 -40 l46 -1 -38 -20 c-36 -19 -37 -21 -22 -42 24 -34 18 -39 -25 -17 l-40
20 -40 -20 -41 -21 16 31 c9 18 15 33 13 34 -2 1 -19 9 -38 18 l-35 17 47 0
c43 1 49 4 64 33 l17 33 15 -33 c14 -29 20 -32 61 -32z m-884 -150 l70 -5 -47
-18 c-26 -10 -50 -23 -54 -28 -3 -5 4 -25 16 -44 12 -19 20 -35 17 -35 -2 0
-30 11 -61 25 l-57 25 -50 -26 c-28 -14 -53 -23 -56 -20 -3 3 4 21 16 40 l22
34 -53 25 -53 25 66 1 65 1 23 41 23 41 22 -38 c21 -38 23 -39 91 -44z m155
-158 l25 -47 85 -6 c47 -3 80 -6 74 -7 -7 -1 -37 -14 -68 -28 l-56 -25 26 -45
c15 -25 25 -46 23 -48 -2 -2 -34 10 -70 26 l-67 30 -68 -30 c-38 -17 -70 -29
-72 -27 -2 2 8 24 23 49 l27 46 -57 25 c-32 14 -63 26 -69 27 -6 1 27 4 74 7
l85 6 25 47 c14 27 27 48 30 48 3 0 16 -21 30 -48z"/>
<path d="M2203 2510 c-25 -10 -49 -78 -33 -94 11 -11 25 5 60 67 22 39 17 45
-27 27z"/>
<path d="M2039 2395 c-46 -24 -46 -24 -53 -86 -7 -71 -8 -289 -1 -289 2 0 25
10 50 22 39 19 45 26 45 53 0 29 6 35 81 74 81 43 82 44 110 27 28 -17 31 -16
69 5 22 13 40 26 40 29 0 9 -273 190 -285 190 -6 -1 -31 -12 -56 -25z m93
-105 c21 -14 38 -28 38 -32 0 -7 -73 -48 -85 -48 -3 0 -5 25 -5 56 0 31 3 54
8 52 4 -1 24 -14 44 -28z"/>
<path d="M1632 2179 c-75 -39 -141 -74 -146 -79 -6 -6 108 -241 130 -269 6 -7
84 31 84 41 0 5 -7 22 -15 38 l-15 30 70 35 c83 42 97 43 112 10 6 -14 15 -25
19 -25 18 0 79 34 79 44 0 21 -39 74 -59 81 -16 5 -20 12 -15 30 11 43 -53
135 -94 135 -7 0 -74 -32 -150 -71z m148 -48 c5 -11 10 -24 10 -29 0 -5 -36
-28 -80 -51 l-79 -42 -16 32 c-9 17 -15 32 -13 34 10 9 145 74 155 75 7 0 17
-9 23 -19z"/>
<path d="M2130 1986 l-195 -104 -3 -716 c-1 -394 1 -716 4 -716 13 0 373 185
420 216 149 99 224 248 224 444 0 137 -35 251 -140 459 -74 148 -114 331 -101
459 4 40 3 62 -4 61 -5 0 -98 -47 -205 -103z"/>
<path d="M1238 1974 l-46 -26 -4 -172 c-2 -94 -2 -173 -1 -176 2 -2 24 7 48
20 38 21 45 29 45 55 0 27 7 34 83 74 81 43 84 43 109 27 24 -16 28 -16 72 6
25 12 46 24 46 27 0 8 -285 191 -296 191 -5 0 -30 -12 -56 -26z m99 -106 l46
-31 -44 -23 c-24 -13 -47 -23 -51 -24 -5 0 -8 25 -8 55 0 30 3 55 6 55 3 0 26
-14 51 -32z"/>
<path d="M870 1779 c-74 -39 -139 -75 -144 -79 -9 -9 124 -270 138 -270 10 0
276 138 289 150 5 4 1 22 -8 39 l-16 32 -106 -55 c-81 -43 -109 -53 -120 -45
-7 6 -13 15 -13 19 0 5 45 31 100 60 55 28 100 53 100 56 0 2 -7 16 -16 29
l-16 24 -100 -50 c-79 -40 -103 -48 -109 -37 -15 22 -11 27 54 59 34 17 81 43
104 56 43 25 43 25 28 54 -9 16 -19 29 -23 29 -4 0 -68 -32 -142 -71z"/>
<path d="M1398 1602 l-318 -166 0 -551 0 -551 159 -87 158 -86 154 84 c85 47
157 86 161 87 5 2 7 326 6 720 l-3 716 -317 -166z m-128 -1157 c0 -37 -4 -65
-10 -65 -5 0 -10 24 -10 53 0 29 -5 58 -12 65 -9 9 -7 12 10 12 20 0 22 -5 22
-65z m114 44 c17 -24 13 -41 -21 -87 -27 -36 -42 -37 -23 -3 9 17 8 21 -5 21
-8 0 -20 11 -26 24 -24 53 41 92 75 45z m66 -44 c0 -37 -4 -65 -10 -65 -5 0
-10 23 -10 51 0 38 -5 55 -17 65 -16 12 -15 13 10 14 27 0 27 -1 27 -65z m112
8 c3 -58 -12 -102 -25 -69 -4 9 -17 16 -32 16 -14 0 -25 5 -25 11 0 19 54 99
67 99 7 0 13 -22 15 -57z"/>
<path d="M1324 475 c-8 -20 4 -35 26 -35 23 0 32 13 24 34 -8 20 -43 21 -50 1z"/>
<path d="M1517 450 c-16 -22 -16 -25 -1 -28 21 -5 26 2 22 30 l-3 23 -18 -25z"/>
<path d="M579 1625 c-57 -21 -183 -93 -206 -117 -39 -41 -38 -67 7 -156 66
-131 95 -137 260 -49 142 75 162 99 135 162 -16 40 -18 41 -65 16 -24 -13 -35
-26 -35 -42 0 -19 -14 -31 -73 -62 -43 -23 -80 -36 -91 -32 -10 3 -28 28 -41
55 -28 61 -24 68 71 115 58 30 69 32 79 20 11 -13 17 -12 49 7 54 32 54 32 22
66 -32 35 -55 38 -112 17z"/>
<path d="M545 1157 c-209 -110 -311 -169 -313 -181 -6 -31 38 -138 80 -194 22
-29 66 -73 98 -96 56 -42 427 -236 449 -236 8 0 11 128 11 435 0 239 -3 435
-7 435 -5 -1 -147 -74 -318 -163z"/>
</g>
</svg>
